<svg width="12" height="13" viewBox="0 0 12 13" fill="none" xmlns="http://www.w3.org/2000/svg">
<path d="M10.9735 5.33949C10.9421 5.24692 10.8842 5.16559 10.8071 5.10552C10.73 5.04546 10.637 5.00929 10.5395 5.00149L7.68902 4.77499L6.45552 2.04449C6.41624 1.95655 6.35234 1.88185 6.27154 1.82942C6.19075 1.77699 6.0965 1.74906 6.00018 1.74901C5.90386 1.74896 5.80959 1.77678 5.72873 1.82912C5.64788 1.88147 5.5839 1.95609 5.54452 2.04399L4.31102 4.77499L1.46052 5.00149C1.36475 5.00908 1.27319 5.0441 1.1968 5.10236C1.12041 5.16062 1.06242 5.23965 1.02977 5.33001C0.997117 5.42036 0.99119 5.51821 1.01269 5.61184C1.0342 5.70548 1.08222 5.79094 1.15102 5.85799L3.25752 7.91149L2.51252 11.1375C2.4899 11.2351 2.49715 11.3373 2.53333 11.4308C2.56951 11.5243 2.63295 11.6047 2.71542 11.6617C2.79789 11.7187 2.89558 11.7496 2.99581 11.7503C3.09605 11.7511 3.19419 11.7217 3.27752 11.666L6.00002 9.85099L8.72252 11.666C8.80769 11.7225 8.90813 11.7516 9.01034 11.7494C9.11254 11.7472 9.21161 11.7137 9.29422 11.6535C9.37683 11.5932 9.43901 11.5092 9.47241 11.4125C9.5058 11.3159 9.50881 11.2114 9.48102 11.113L8.56652 7.91299L10.8345 5.87199C10.983 5.73799 11.0375 5.52899 10.9735 5.33949Z" fill="#FFB200"/>
</svg>
