<svg width="34" height="40" viewBox="0 0 34 40" fill="none" xmlns="http://www.w3.org/2000/svg">
<path d="M22.0938 28.6141C18.469 27.6759 14.4178 28.4861 11.3901 31.1727C10.921 31.5991 10.4946 32.0256 10.1108 32.4947C12.9253 30.7036 16.2515 30.2345 19.3219 31.0448C19.7057 34.2004 18.8102 37.4414 16.678 40C17.1897 39.6589 17.6588 39.3177 18.1279 38.8913C21.1556 36.2047 22.5202 32.3241 22.0938 28.6141Z" fill="white"/>
<path d="M17.0191 16.0768C17.872 16.3326 18.7249 16.5458 19.6204 16.6738C18.7675 16.8017 17.9146 16.887 17.0618 16.887H17.0191C16.8912 16.887 16.7632 16.887 16.6353 16.887C9.94022 16.887 4.098 13.5181 0.601196 8.4435C4.098 3.36887 9.94022 0 16.5927 0C16.7206 0 16.8485 0 16.9765 0H17.0191C17.872 0 18.7675 0.0852878 19.5777 0.21322C18.6822 0.341151 17.8293 0.554371 16.9765 0.810235C12.7121 2.08955 9.04469 4.81876 6.57135 8.4435C9.08734 12.0256 12.7121 14.7548 17.0191 16.0768Z" fill="white"/>
<path d="M22.7334 0.767593C22.7334 0.767593 33.1385 3.45416 33.3944 12.9638C33.6502 22.4733 22.7334 27.2921 22.7334 27.2921C22.7334 27.2921 27.5522 20.1279 22.7334 17.4414C22.7334 17.4414 26.7846 17.1855 27.8933 19.1471C27.8933 19.1471 35.953 9.38167 22.7334 0.767593Z" fill="white"/>
<path d="M15.7824 10.6183C15.7824 11.4286 15.1001 12.1109 14.2899 12.1109C13.4796 12.1109 12.7973 11.4286 12.7973 10.6183C12.7973 9.8081 13.4796 9.12579 14.2899 9.12579C15.1001 9.16844 15.7824 9.8081 15.7824 10.6183Z" fill="white"/>
</svg>
