<svg width="40" height="40" viewBox="0 0 40 40" fill="none" xmlns="http://www.w3.org/2000/svg">
<path d="M20 40C31.0457 40 40 31.0457 40 20C40 8.9543 31.0457 0 20 0C8.9543 0 0 8.9543 0 20C0 31.0457 8.9543 40 20 40Z" fill="white"/>
<mask id="mask0" mask-type="alpha" maskUnits="userSpaceOnUse" x="0" y="0" width="40" height="40">
<path d="M20 40C31.0457 40 40 31.0457 40 20C40 8.95433 31.0457 2.67029e-05 20 2.67029e-05C8.9543 2.67029e-05 0 8.95433 0 20C0 31.0457 8.9543 40 20 40Z" fill="#333333"/>
</mask>
<g mask="url(#mask0)">
<path d="M18.7335 8.86666C18.4002 8.86666 18.0669 9.13332 18.0669 9.53332V19.6667C18.0669 20 17.8669 20.3333 17.5335 20.4C17.1335 20.4667 16.7335 20.1333 16.7335 19.7333V9.53332C16.7335 9.19999 16.4669 8.86666 16.0669 8.86666H16.0002C15.6669 8.86666 15.3335 9.13332 15.3335 9.53332V19.6667C15.3335 20 15.1335 20.3333 14.8002 20.4C14.4002 20.4667 14.0002 20.1333 14.0002 19.7333V9.53332C14.0002 9.19999 13.7335 8.86666 13.3335 8.86666C13.0002 8.86666 12.6669 9.13332 12.6669 9.53332V19.7333C12.6669 20.0667 12.4669 20.4 12.1335 20.4667C11.7335 20.5333 11.3335 20.2 11.3335 19.8V9.53332C11.3335 9.19999 11.0669 8.86666 10.6669 8.86666C10.3335 8.86666 10.0002 9.13332 10.0002 9.46666C9.93355 12.2667 9.60022 23.4667 10.0669 24.2667C10.9335 25.8 12.0669 25.8666 12.8669 27.5333C13.6669 29.2 13.8669 32.4 13.6002 36C13.1335 42.9333 11.2669 50.9333 11.9335 52.4666C12.8002 54.4 14.2002 54.4666 14.6002 54.4666C15.0002 54.4666 16.4002 54.3333 17.2669 52.4666C18.0002 50.9333 16.1335 42.9333 15.6002 36C15.3335 32.4 15.5335 29.1333 16.3335 27.5333C17.1335 25.8666 18.3335 25.8 19.1335 24.2667C19.5335 23.4667 19.2669 12.2667 19.2002 9.46666C19.3335 9.13332 19.0669 8.86666 18.7335 8.86666Z" fill="#211F21"/>
<path d="M29.3334 8.06666C29.3334 7.4 28.5334 7.13333 28.1334 7.53333C27.1334 8.6 25.7334 10.4667 24.7334 13.5333C23.5334 17.3333 23.2001 28.2 24.0001 30.2C24.7334 32 25.3334 31.3333 25.8668 32.1333C26.6668 33.4666 26.4001 35 26.1334 38.6C25.6668 45.5333 23.8668 51 24.5334 52.5333C25.4001 54.4666 26.8001 54.5333 27.2001 54.5333C27.6001 54.5333 29.0001 54.4 29.8668 52.5333C30.6001 51 28.5334 34.3333 28.8001 30.3333C29.0668 28.6 29.4668 12.8667 29.3334 8.06666Z" fill="#211F21"/>
</g>
</svg>
