<svg width="24" height="24" viewBox="0 0 24 24" fill="none" xmlns="http://www.w3.org/2000/svg">
<path d="M22 12C22 11.846 22 11.7022 21.9898 11.5482C21.9898 11.4866 21.9795 11.4353 21.9795 11.3737C21.9692 11.2813 21.9692 11.1992 21.959 11.1068C21.9487 11.0349 21.9487 10.9733 21.9384 10.9014C21.9282 10.7885 21.9076 10.6653 21.8974 10.5523C21.8974 10.5421 21.8974 10.5421 21.8974 10.5318C21.1068 15.039 17.2978 18.5092 12.6263 18.7864C12.4723 18.7967 12.3183 18.807 12.1643 18.807C12.1129 18.807 12.0513 18.807 12 18.807C11.9795 18.807 11.9692 18.807 11.9487 18.807C11.8563 18.807 11.7741 18.807 11.6817 18.7967C11.6509 18.7967 11.6201 18.7967 11.5893 18.7967C11.5688 18.7967 11.538 18.7967 11.5175 18.7967C11.4045 18.7864 11.2916 18.7762 11.1787 18.7659C6.54826 18.3655 2.82136 14.8131 2.16427 10.2546C2.14374 10.3881 2.1232 10.5215 2.10267 10.655C2.10267 10.6756 2.10267 10.6858 2.0924 10.7064C2.07187 10.8296 2.0616 10.9528 2.05133 11.076C2.05133 11.1273 2.04107 11.1786 2.04107 11.2402C2.0308 11.3326 2.0308 11.425 2.02053 11.5174C2 11.6817 2 11.8357 2 11.9897V12C2 16.4866 4.95688 20.2854 9.0226 21.5483C9.1766 21.5996 9.34087 21.6407 9.49487 21.6817C10.2957 21.8871 11.1273 22 11.9897 22C17.5236 22 22 17.5236 22 12Z" fill="#6D61F2"/>
<path d="M2.80073 10.1725C3.09848 12.2362 4.10464 14.1766 5.63441 15.614C6.11696 16.0657 6.65084 16.4661 7.21552 16.8152C6.06563 15.6653 5.2956 14.1253 5.18267 12.462C4.95679 9.06366 7.22579 6.15812 10.3367 5.37783C10.7884 5.26489 11.2299 5.61397 11.2299 6.08625V7.70843C11.2299 8.33471 10.8808 8.90966 10.3367 9.22793C9.35105 9.82342 8.69397 10.9528 8.7761 12.2156C8.88904 13.8789 10.2853 15.2033 11.9486 15.2238C13.7556 15.2546 15.2237 13.7967 15.2237 12C15.2237 10.809 14.5769 9.77208 13.6221 9.21767C13.078 8.89939 12.7597 8.30391 12.7597 7.67762V6.08625C12.7597 5.61397 13.2012 5.26489 13.6632 5.37783C16.6303 6.11705 18.8274 8.80699 18.8274 12C18.8274 13.8994 18.0472 15.6242 16.7843 16.8665C17.2977 16.5688 17.7802 16.2095 18.232 15.8193C19.8131 14.423 20.8808 12.5134 21.2402 10.4394L21.5071 8.91993C20.2135 4.90555 16.4455 2 11.9999 2C7.657 2 3.9609 4.77208 2.58513 8.64272L2.80073 10.1725Z" fill="#6D61F2"/>
</svg>
