<svg width="18" height="18" viewBox="0 0 18 18" fill="none" xmlns="http://www.w3.org/2000/svg">
<path d="M7.63634 1.5C6.42269 1.5 5.23629 1.85989 4.22717 2.53416C3.21806 3.20843 2.43155 4.16679 1.9671 5.28806C1.50266 6.40933 1.38114 7.64314 1.61791 8.83348C1.85468 10.0238 2.43911 11.1172 3.29729 11.9754C4.15548 12.8336 5.24887 13.418 6.4392 13.6548C7.62953 13.8915 8.86334 13.77 9.98461 13.3056C11.1059 12.8411 12.0642 12.0546 12.7385 11.0455C13.4128 10.0364 13.7727 8.84999 13.7727 7.63634C13.7726 6.00891 13.126 4.44817 11.9753 3.29741C10.8245 2.14664 9.26376 1.5001 7.63634 1.5V1.5Z" stroke="#6E80B0" stroke-width="2" stroke-miterlimit="10"/>
<path d="M12.2145 12.2144L16.5 16.5" stroke="#6E80B0" stroke-width="2" stroke-miterlimit="10" stroke-linecap="round"/>
</svg>
