<svg width="42" height="25" viewBox="0 0 42 25" fill="none" xmlns="http://www.w3.org/2000/svg">
<path d="M34.8286 22.5238C34.4857 14.8667 28.4286 8.77144 21 8.77144C13.5714 8.77144 7.5143 14.8667 7.17145 22.5238H34.8286Z" fill="white"/>
<path d="M21 9.57145C21.505 9.57145 21.9143 9.16211 21.9143 8.65716C21.9143 8.15221 21.505 7.74287 21 7.74287C20.4951 7.74287 20.0857 8.15221 20.0857 8.65716C20.0857 9.16211 20.4951 9.57145 21 9.57145Z" fill="white"/>
<path d="M35.6286 24.5429H6.37145C6.06668 24.5429 5.80002 24.2762 5.80002 23.9715C5.80002 23.6667 6.06668 23.4 6.37145 23.4H35.6286C35.9333 23.4 36.2 23.6667 36.2 23.9715C36.2 24.2762 35.9333 24.5429 35.6286 24.5429Z" fill="white"/>
<path d="M20.7715 9.64764C14.6 9.64764 9.57145 14.8286 8.65717 21.3429L11.7429 21.381C12.6953 15.2095 17.4572 11.0572 20.7715 9.64764Z" fill="#BEBEBE"/>
<g opacity="0.7">
<path d="M20.9619 4.88572V1.45715" stroke="white" stroke-miterlimit="10" stroke-linecap="round"/>
<path d="M4.69524 21.9905H1" stroke="white" stroke-miterlimit="10" stroke-linecap="round"/>
<path d="M37.2667 21.9905H41" stroke="white" stroke-miterlimit="10" stroke-linecap="round"/>
<path d="M32.5048 10.4857L35.1333 7.85715" stroke="white" stroke-miterlimit="10" stroke-linecap="round"/>
<path d="M9.49524 10.4857L6.86667 7.85715" stroke="white" stroke-miterlimit="10" stroke-linecap="round"/>
<path d="M27.2476 6.94286L28.1619 4.73334" stroke="white" stroke-miterlimit="10" stroke-linecap="round"/>
<path d="M36.0476 15.7429L38.2952 14.7143" stroke="white" stroke-miterlimit="10" stroke-linecap="round"/>
<path d="M14.6381 6.94286L13.7238 4.73334" stroke="white" stroke-miterlimit="10" stroke-linecap="round"/>
<path d="M5.8381 15.7429L3.55238 14.7143" stroke="white" stroke-miterlimit="10" stroke-linecap="round"/>
</g>
</svg>
